<svg height="112.70937500000005" version="1.1" width="222.546875" xmlns="http://www.w3.org/2000/svg" xmlns:xlink="http://www.w3.org/1999/xlink" style="overflow: hidden; position: relative;" viewBox="195.234375 195.835975 222.546875 112.70937500000005" preserveAspectRatio="xMinYMin" id="main_svg"><desc style="-webkit-tap-highlight-color: rgba(0, 0, 0, 0);">Created with Logotizer</desc><defs style="-webkit-tap-highlight-color: rgba(0, 0, 0, 0);"><linearGradient id="gradient_2057ek564t732bo0c2izii" x1="1.8369701987210297e-16" y1="0" x2="0" y2="1" style="-webkit-tap-highlight-color: rgba(0, 0, 0, 0);"><stop offset="44%" stop-color="#aba6a6" stop-opacity="1" style="-webkit-tap-highlight-color: rgba(0, 0, 0, 0);"></stop><stop offset="91%" stop-color="#000000" stop-opacity="1" style="-webkit-tap-highlight-color: rgba(0, 0, 0, 0);"></stop></linearGradient><linearGradient id="gradient_qunr4fwnxxmz72fz0ntmx" x1="1.8369701987210297e-16" y1="0" x2="0" y2="1" style="-webkit-tap-highlight-color: rgba(0, 0, 0, 0);"><stop offset="44%" stop-color="#aba6a6" stop-opacity="1" style="-webkit-tap-highlight-color: rgba(0, 0, 0, 0);"></stop><stop offset="91%" stop-color="#000000" stop-opacity="1" style="-webkit-tap-highlight-color: rgba(0, 0, 0, 0);"></stop></linearGradient></defs><path fill="#333333" stroke="none" d="M-44.9,0L-44.9,-34.08L-25.89,-34.08L-20.64,-28.9L-20.64,-18.33L-25.89,-13.15L-29.05,-13.15L-30.16,-13.64L-30.25,-13.48L-29.15,-12.63L-20.08,-2.7L-24.11,0.96L-36.98,-13.15L-39.37,-13.15L-39.37,0L-44.9,0M-39.37,-18.19L-28.47,-18.19L-26.17,-20.44L-26.17,-26.79L-28.47,-29.04L-39.37,-29.04L-39.37,-18.19ZM-16,-24.82L-10.82,-26.55L-8.85,-20.6L-8.85,0L-14.36,0L-14.36,-19.92L-16,-24.82M-14.71,-30.82L-14.71,-33.45L-12.93,-35.23L-10.28,-35.23L-8.5,-33.45L-8.5,-30.82L-10.28,-29.04L-12.93,-29.04L-14.71,-30.82ZM-3.72,-25.43L0.76,-26.55L1.67,-22.85L4.44,-26.06L14.42,-26.06L19.04,-21.52L19.04,0L13.51,0L13.51,-19.55L12.03,-21.02L5.94,-21.02L3.29,-18L3.29,0L-2.22,0L-2.22,-19.34L-3.72,-25.43ZM24.31,6.19L25.65,1.88L30.88,3.52L40.25,3.52L40.91,2.84L40.91,1.55L40.25,0.87L28.13,0.87L24.64,-2.65L24.64,-7.38L26.84,-9.61L24.64,-11.81L24.64,-21.52L29.26,-26.06L39.38,-26.06L45.48,-27.56L46.58,-23.09L42.88,-22.17L46.09,-19.38L46.09,-10.9L41.49,-6.33L30.36,-6.33L29.68,-5.67L29.68,-4.36L30.36,-3.7L42.45,-3.7L45.95,-0.19L45.95,4.57L42.45,8.06L30.31,8.06L24.31,6.19M30.15,-13.78L32.56,-11.37L39.08,-11.37L40.58,-12.87L40.58,-18.38L37.55,-21.02L31.65,-21.02L30.15,-19.55L30.15,-13.78Z" transform="matrix(0.6,0,0,0.6,358.5,224.8391)" style="-webkit-tap-highlight-color: rgba(0, 0, 0, 0);" stroke-width="1"></path><path fill="#333333" stroke="none" d="M-70.32,6.19L-68.98,1.88L-63.76,3.52L-54.38,3.52L-53.73,2.84L-53.73,1.55L-54.38,0.87L-66.5,0.87L-69.99,-2.65L-69.99,-7.38L-67.79,-9.61L-69.99,-11.81L-69.99,-21.52L-65.38,-26.06L-55.25,-26.06L-49.16,-27.56L-48.05,-23.09L-51.76,-22.17L-48.55,-19.38L-48.55,-10.9L-53.14,-6.33L-64.27,-6.33L-64.95,-5.67L-64.95,-4.36L-64.27,-3.7L-52.18,-3.7L-48.69,-0.19L-48.69,4.57L-52.18,8.06L-64.32,8.06L-70.32,6.19M-64.48,-13.78L-62.07,-11.37L-55.55,-11.37L-54.05,-12.87L-54.05,-18.38L-57.08,-21.02L-62.98,-21.02L-64.48,-19.55L-64.48,-13.78ZM-43.74,-4.62L-43.74,-21.45L-39.2,-26.06L-26.84,-26.06L-22.3,-21.45L-22.3,-4.62L-26.84,0L-39.2,0L-43.74,-4.62M-38.23,-6.54L-36.73,-5.04L-29.3,-5.04L-27.8,-6.54L-27.8,-19.55L-29.3,-21.02L-36.73,-21.02L-38.23,-19.55L-38.23,-6.54ZM-17.52,-32.84L-12.34,-34.57L-10.37,-28.62L-10.37,0L-15.88,0L-15.88,-27.94L-17.52,-32.84ZM-5.09,-4.57L-5.09,-21.52L-0.5,-26.06L8.01,-26.06L10.59,-24.19L10.59,-34.08L16.12,-34.08L16.12,-6.73L17.59,-0.63L13.14,0.47L12.23,-3.21L9.44,0L-0.5,0L-5.09,-4.57M0.41,-6.54L1.91,-5.04L7.96,-5.04L10.59,-8.06L10.59,-18.82L7.52,-21.02L1.91,-21.02L0.41,-19.55L0.41,-6.54ZM22.4,-4.57L22.4,-21.52L26.99,-26.06L38.99,-26.06L43.61,-21.52L43.61,-14.16L39.48,-10.08L27.91,-10.08L27.91,-6.54L29.41,-5.04L36.88,-5.04L42.27,-6.73L43.75,-1.92L37.61,0L26.99,0L22.4,-4.57M27.91,-15.12L36.84,-15.12L38.08,-16.36L38.08,-19.55L36.6,-21.02L29.41,-21.02L27.91,-19.55L27.91,-15.12ZM47.57,-25.43L52.05,-26.55L52.96,-22.85L55.73,-26.06L65.71,-26.06L70.33,-21.52L70.33,0L64.8,0L64.8,-19.55L63.32,-21.02L57.23,-21.02L54.58,-18L54.58,0L49.07,0L49.07,-19.34L47.57,-25.43Z" transform="matrix(0.6,0,0,0.6,279.5,223.8391)" style="-webkit-tap-highlight-color: rgba(0, 0, 0, 0);" stroke-width="1"></path><path fill="#333333" stroke="none" d="M-96.24,0L-96.24,-34.08L-74.49,-34.08L-74.49,-29.04L-90.71,-29.04L-90.71,-19.2L-76.51,-19.2L-76.51,-14.16L-90.71,-14.16L-90.71,0L-96.24,0ZM-71.84,-4.62L-71.84,-21.45L-67.3,-26.06L-54.95,-26.06L-50.4,-21.45L-50.4,-4.62L-54.95,0L-67.3,0L-71.84,-4.62M-66.34,-6.54L-64.84,-5.04L-57.41,-5.04L-55.91,-6.54L-55.91,-19.55L-57.41,-21.02L-64.84,-21.02L-66.34,-19.55L-66.34,-6.54ZM-45.62,-25.43L-41.14,-26.55L-40.23,-22.85L-37.46,-26.06L-29.49,-26.06L-23.82,-20.55L-27.48,-16.8L-31.79,-21.02L-35.96,-21.02L-38.61,-18L-38.61,0L-44.12,0L-44.12,-19.34L-45.62,-25.43ZM-21.66,-4.57L-21.66,-21.52L-17.07,-26.06L-5.07,-26.06L-0.45,-21.52L-0.45,-14.16L-4.58,-10.08L-16.16,-10.08L-16.16,-6.54L-14.66,-5.04L-7.18,-5.04L-1.79,-6.73L-0.31,-1.92L-6.45,0L-17.07,0L-21.66,-4.57M-16.16,-15.12L-7.23,-15.12L-5.98,-16.36L-5.98,-19.55L-7.46,-21.02L-14.66,-21.02L-16.16,-19.55L-16.16,-15.12ZM4,-4.57L4,-21.52L8.59,-26.06L20.59,-26.06L25.21,-21.52L25.21,-15.84L19.68,-15.84L19.68,-19.55L18.2,-21.02L11.01,-21.02L9.51,-19.55L9.51,-6.54L11.01,-5.04L18.72,-5.04L24.02,-6.73L25.54,-1.92L19.4,0L8.59,0L4,-4.57ZM28.89,-4.57L28.89,-10.99L33.51,-15.56L44.64,-15.56L44.64,-19.55L43.14,-21.02L36.13,-21.02L30.77,-19.34L29.29,-24.14L35.43,-26.06L45.55,-26.06L50.15,-21.52L50.15,-6.73L51.65,-0.63L47.17,0.47L46.28,-3.21L43.49,0L33.51,0L28.89,-4.57M34.42,-6.54L35.9,-5.04L41.99,-5.04L44.64,-8.06L44.64,-10.52L35.9,-10.52L34.42,-9.02L34.42,-6.54ZM55,-2.02L56.64,-6.87L62.1,-5.04L68.78,-5.04L70.33,-6.59L70.33,-7.69L69.65,-8.79L57.11,-13.1L55.28,-16.08L55.28,-21.52L59.85,-26.06L70.12,-26.06L76.16,-24.05L74.55,-19.2L69.06,-21.02L62.36,-21.02L60.81,-19.48L60.81,-18.47L61.49,-17.37L74.01,-13.05L75.84,-10.08L75.84,-4.57L71.27,0L61.05,0L55,-2.02ZM78.32,-20.55L78.32,-25.59L82.63,-25.59L82.63,-32.65L88.16,-32.65L88.16,-25.59L95.13,-25.59L95.13,-20.55L88.16,-20.55L88.16,-6.54L89.64,-5.04L92.88,-5.04L98.1,-6.68L99.58,-1.92L93.44,0L87.2,0L82.63,-4.57L82.63,-20.55L78.32,-20.55Z" transform="matrix(0.6,0,0,0.6,311.5,299.0391)" style="-webkit-tap-highlight-color: rgba(0, 0, 0, 0);" stroke-width="1"></path><path fill="url(#gradient_qunr4fwnxxmz72fz0ntmx)" stroke="none" d="M-110.8,-33.56L-105.46,-35.04L-99.23,-12.91L-98.69,-9.66L-98.5,-9.66L-97.94,-12.91L-92.08,-32.6L-86.8,-32.6L-80.95,-12.91L-80.36,-9.66L-80.17,-9.66L-79.63,-12.91L-73.4,-35.04L-68.08,-33.56L-77.52,0L-82.56,0L-88.82,-21.16L-89.34,-24.42L-89.52,-24.42L-90.06,-21.16L-96.3,0L-101.34,0L-110.8,-33.56ZM-65.45,-32.84L-60.27,-34.57L-58.3,-28.62L-58.3,-24.19L-55.7,-26.06L-47.22,-26.06L-42.6,-21.52L-42.6,0L-48.13,0L-48.13,-19.55L-49.61,-21.02L-55.23,-21.02L-58.3,-18.82L-58.3,0L-63.81,0L-63.81,-27.94L-65.45,-32.84ZM-37.33,-4.57L-37.33,-21.52L-32.73,-26.06L-20.73,-26.06L-16.12,-21.52L-16.12,-14.16L-20.24,-10.08L-31.82,-10.08L-31.82,-6.54L-30.32,-5.04L-22.84,-5.04L-17.45,-6.73L-15.98,-1.92L-22.12,0L-32.73,0L-37.33,-4.57M-31.82,-15.12L-22.89,-15.12L-21.65,-16.36L-21.65,-19.55L-23.13,-21.02L-30.32,-21.02L-31.82,-19.55L-31.82,-15.12ZM-12.63,-4.57L-12.63,-10.99L-8.01,-15.56L3.13,-15.56L3.13,-19.55L1.63,-21.02L-5.38,-21.02L-10.75,-19.34L-12.23,-24.14L-6.09,-26.06L4.04,-26.06L8.63,-21.52L8.63,-6.73L10.13,-0.63L5.66,0.47L4.77,-3.21L1.98,0L-8.01,0L-12.63,-4.57M-7.09,-6.54L-5.62,-5.04L0.48,-5.04L3.13,-8.06L3.13,-10.52L-5.62,-10.52L-7.09,-9.02L-7.09,-6.54ZM12.29,-20.55L12.29,-25.59L16.6,-25.59L16.6,-32.65L22.13,-32.65L22.13,-25.59L29.09,-25.59L29.09,-20.55L22.13,-20.55L22.13,-6.54L23.61,-5.04L26.84,-5.04L32.07,-6.68L33.55,-1.92L27.41,0L21.17,0L16.6,-4.57L16.6,-20.55L12.29,-20.55ZM35.7,-32.84L40.88,-34.57L42.85,-28.62L42.85,-24.19L45.45,-26.06L53.94,-26.06L58.55,-21.52L58.55,0L53.02,0L53.02,-19.55L51.55,-21.02L45.92,-21.02L42.85,-18.82L42.85,0L37.34,0L37.34,-27.94L35.7,-32.84ZM63.83,-4.57L63.83,-21.52L68.42,-26.06L80.42,-26.06L85.04,-21.52L85.04,-14.16L80.91,-10.08L69.34,-10.08L69.34,-6.54L70.84,-5.04L78.31,-5.04L83.7,-6.73L85.18,-1.92L79.04,0L68.42,0L63.83,-4.57M69.34,-15.12L78.27,-15.12L79.51,-16.36L79.51,-19.55L78.03,-21.02L70.84,-21.02L69.34,-19.55L69.34,-15.12ZM89,-25.43L93.48,-26.55L94.39,-22.85L97.16,-26.06L105.13,-26.06L110.8,-20.55L107.14,-16.8L102.83,-21.02L98.66,-21.02L96.01,-18L96.01,0L90.5,0L90.5,-19.34L89,-25.43Z" opacity="1" fill-opacity="1" transform="matrix(1,0,0,1,306.5,269.0391)" style="-webkit-tap-highlight-color: rgba(0, 0, 0, 0); opacity: 1; fill-opacity: 1;" stroke-width="1"></path></svg>